<svg width="1317" height="605" viewBox="0 0 1317 605" fill="none" xmlns="http://www.w3.org/2000/svg">
<path d="M0 557C0 573.802 0 582.202 3.2698 588.62C6.14601 594.265 10.7354 598.854 16.3803 601.73C22.7976 605 31.1984 605 48 605H1231.06C1259.14 605 1273.18 605 1281.13 599.119C1288.06 593.992 1292.45 586.131 1293.18 577.541C1294.02 567.687 1286.66 555.734 1271.93 531.827L1019.93 122.682C1015.37 115.278 1013.09 111.576 1010.03 108.764C1007.32 106.273 1004.18 104.302 1000.76 102.949C996.895 101.421 992.57 100.981 983.919 100.101L52.8583 5.37762C34.5456 3.51459 25.3892 2.58301 18.3101 5.57825C12.092 8.20917 6.94315 12.8608 3.69637 18.7806C0 25.5203 0 34.7239 0 53.1312V557Z" fill="white"/>
<mask id="mask0" mask-type="alpha" maskUnits="userSpaceOnUse" x="0" y="3" width="1294" height="603">
<path d="M0 560C0 573.978 0 580.967 2.28361 586.481C5.32843 593.831 11.1687 599.672 18.5195 602.716C24.0326 605 31.0218 605 45 605H1236.43C1259.77 605 1271.44 605 1278.47 600.873C1287.85 595.371 1293.51 585.228 1293.28 574.36C1293.11 566.209 1286.99 556.273 1274.75 536.401L1019.15 121.421C1015.36 115.255 1013.46 112.172 1011.02 109.719C1007.78 106.448 1003.82 103.968 999.467 102.472C996.199 101.35 992.597 100.984 985.393 100.251L49.5546 5.0415C34.3218 3.49182 26.7055 2.71692 20.6582 4.69855C12.5952 7.34064 6.02813 13.2735 2.58348 21.0277C0 26.8433 0 34.499 0 49.8104V560Z" fill="#0081FE"/>
</mask>
<g mask="url(#mask0)">
<g opacity="0.6">
<g opacity="0.2">
<path d="M850.614 265.538C840.109 258.967 830.84 251.202 823.425 242.242C833.312 239.256 842.581 235.075 850.614 230.296C861.428 223.726 870.697 215.662 878.112 206.403C883.055 209.39 888.617 211.779 895.105 213.571C903.447 215.662 913.334 216.856 925.075 216.856C988.413 216.856 999.227 182.511 999.227 131.739L999.227 7.19777L850.923 7.19778L850.923 96.1981C850.923 137.712 842.581 168.175 805.814 178.031C803.033 178.927 799.634 179.524 796.545 180.121C795.309 172.655 795 164.89 795 157.125L795 -60.0005L1055.77 -60.0005L1055.77 157.125C1055.77 224.92 1014.06 284.353 925.384 284.353C894.796 284.353 870.079 277.185 850.614 265.538Z" fill="#FF7A00"/>
</g>
<g opacity="0.4">
<path d="M770.5 266C788.802 266 805.178 263.168 819.948 258.213C830.223 254.673 839.855 249.718 848.204 244.054C859.442 236.267 869.075 226.71 876.781 215.737C884.166 205.826 889.945 194.499 894.441 182.464C902.147 161.934 906 139.28 906 115.565L906 -20.3578L848.525 -20.3578L848.525 85.1238C848.525 134.325 839.855 170.429 801.646 182.11C798.756 183.172 795.224 183.88 792.013 184.588C785.591 185.65 778.527 186.358 770.5 186.358C704.677 186.358 693.438 145.652 693.438 85.4778L693.438 -20.3578L790.086 -20.3578L790.086 -100L635 -100L635 115.565C635 195.561 678.347 266 770.5 266Z" fill="#FF7A00"/>
</g>
</g>
</g>
</svg>
