<svg width="88" height="161" viewBox="0 0 88 161" fill="none" xmlns="http://www.w3.org/2000/svg">
<line x1="1.31134e-07" y1="147.5" x2="72" y2="147.5" stroke="#FF7A00" stroke-width="3"/>
<circle cx="73" cy="146" r="15" fill="#FF7A00"/>
<path d="M78.7346 146.571L70.5671 153.764C70.2087 154.079 69.6281 154.079 69.2688 153.764C68.9104 153.449 68.9104 152.937 69.2688 152.622L76.7884 146L69.2697 139.378C68.9113 139.063 68.9113 138.552 69.2697 138.236C69.6281 137.921 70.2096 137.921 70.568 138.236L78.7355 145.429C79.0883 145.741 79.0883 146.26 78.7346 146.571Z" fill="white"/>
<path d="M79.7346 8.88404L71.5671 15.7986C71.2087 16.1013 70.6281 16.1013 70.2688 15.7986C69.9104 15.4958 69.9104 15.0041 70.2688 14.7014L77.7884 8.33547L70.2697 1.96956C69.9113 1.66682 69.9113 1.17509 70.2697 0.871586C70.6281 0.568846 71.2096 0.568846 71.568 0.871586L79.7355 7.78606C80.0883 8.08567 80.0883 8.58513 79.7346 8.88404Z" fill="white"/>
</svg>
