<svg width="745" height="842" viewBox="0 0 745 842" fill="none" xmlns="http://www.w3.org/2000/svg">
<path d="M6.30908 4.06203C6.30908 6.43477 5.25757 7.62114 3.15454 7.62114C1.05151 7.62114 0 6.43477 0 4.06203C0 2.28248 1.57727 0.50293 3.15454 0.50293C4.73181 0.50293 6.30908 2.28248 6.30908 4.06203Z" fill="#E5E5E5"/>
<path d="M73.6062 4.06203C73.6062 5.84159 72.0289 7.62114 70.4517 7.62114C68.8744 7.62114 67.2971 5.84159 67.2971 4.06203C67.2971 2.28248 68.3486 0.50293 70.4517 0.50293C72.0289 0.50293 73.6062 2.28248 73.6062 4.06203Z" fill="#E5E5E5"/>
<path d="M140.903 4.06203C140.903 5.84159 139.326 7.62114 137.749 7.62114C136.171 7.62114 134.594 5.84159 134.594 4.06203C134.594 2.28248 136.171 0.50293 137.749 0.50293C139.326 0.50293 140.903 2.28248 140.903 4.06203Z" fill="#E5E5E5"/>
<path d="M208.2 4.06203C208.2 5.84159 206.623 7.62114 205.046 7.62114C203.469 7.62114 201.891 5.84159 201.891 4.06203C201.891 2.28248 203.469 0.50293 205.046 0.50293C206.623 0.50293 208.2 2.28248 208.2 4.06203Z" fill="#E5E5E5"/>
<path d="M274.972 4.06203C274.972 5.84159 273.394 7.62114 271.817 7.62114C270.24 7.62114 268.663 5.84159 268.663 4.06203C268.663 2.28248 270.24 0.50293 271.817 0.50293C273.394 0.50293 274.972 2.28248 274.972 4.06203Z" fill="#E5E5E5"/>
<path d="M342.269 4.06203C342.269 5.84159 340.692 7.62114 339.115 7.62114C337.537 7.62114 335.96 6.43477 335.96 4.06203C335.96 2.28248 337.537 0.50293 339.115 0.50293C340.692 0.50293 342.269 2.28248 342.269 4.06203Z" fill="#E5E5E5"/>
<path d="M409.566 4.06203C409.566 5.84159 407.989 7.62114 406.411 7.62114C404.834 7.62114 402.731 6.43477 402.731 4.06203C402.731 2.28248 404.308 0.50293 405.885 0.50293C407.463 0.50293 409.566 2.28248 409.566 4.06203Z" fill="#E5E5E5"/>
<path d="M476.337 4.06203C476.337 5.84159 474.76 7.62114 473.183 7.62114C471.606 7.62114 470.028 5.84159 470.028 4.06203C470.028 2.28248 471.606 0.50293 473.183 0.50293C475.286 0.50293 476.337 2.28248 476.337 4.06203Z" fill="#E5E5E5"/>
<path d="M543.635 4.06203C543.635 5.84159 542.057 7.62114 540.48 7.62114C538.903 7.62114 537.325 5.84159 537.325 4.06203C537.325 2.28248 538.903 0.50293 540.48 0.50293C542.057 0.50293 543.635 2.28248 543.635 4.06203Z" fill="#E5E5E5"/>
<path d="M610.931 4.06203C610.931 5.84159 609.354 7.62114 607.777 7.62114C606.2 7.62114 604.623 5.84159 604.623 4.06203C604.623 2.28248 606.2 0.50293 607.777 0.50293C609.354 0.50293 610.931 2.28248 610.931 4.06203Z" fill="#E5E5E5"/>
<path d="M678.229 4.06203C678.229 5.84159 676.651 7.62114 675.074 7.62114C673.497 7.62114 671.919 5.84159 671.919 4.06203C671.919 2.28248 673.497 0.50293 675.074 0.50293C676.651 0.50293 678.229 2.28248 678.229 4.06203Z" fill="#E5E5E5"/>
<path d="M745 4.06203C745 5.84159 743.423 7.62114 741.845 7.62114C740.268 7.62114 738.691 5.84159 738.691 4.06203C738.691 2.28248 740.268 0.50293 741.845 0.50293C743.949 0.50293 745 2.28248 745 4.06203Z" fill="#E5E5E5"/>
<path d="M6.30908 79.9898C6.30908 81.7693 5.25757 83.5489 3.15454 83.5489C1.05151 83.5489 0 81.7693 0 79.9898C0 78.2102 1.57727 76.4307 3.15454 76.4307C4.73181 76.4307 6.30908 77.617 6.30908 79.9898Z" fill="#E5E5E5"/>
<path d="M73.6062 79.9898C73.6062 81.7693 72.0289 83.5489 70.4517 83.5489C68.8744 83.5489 67.2971 81.7693 67.2971 79.9898C67.2971 78.2102 68.8744 76.4307 70.4517 76.4307C72.0289 76.4307 73.6062 77.617 73.6062 79.9898Z" fill="#E5E5E5"/>
<path d="M140.903 79.9898C140.903 81.7693 139.326 83.5489 137.749 83.5489C136.172 83.5489 134.594 81.7693 134.594 79.9898C134.594 78.2102 136.172 76.4307 137.749 76.4307C139.326 76.4307 140.903 77.617 140.903 79.9898Z" fill="#E5E5E5"/>
<path d="M208.201 79.9898C208.201 81.7693 206.623 83.5489 205.046 83.5489C203.469 83.5489 201.892 81.7693 201.892 79.9898C201.892 78.2102 203.469 76.4307 205.046 76.4307C206.623 76.4307 208.201 77.617 208.201 79.9898Z" fill="#E5E5E5"/>
<path d="M274.972 79.9898C274.972 81.7693 273.394 83.5489 271.817 83.5489C270.24 83.5489 268.663 81.7693 268.663 79.9898C268.663 78.2102 270.24 76.4307 271.817 76.4307C273.394 76.4307 274.972 77.617 274.972 79.9898Z" fill="#E5E5E5"/>
<path d="M342.269 79.9898C342.269 81.7693 340.692 83.5489 339.115 83.5489C337.537 83.5489 335.96 81.7693 335.96 79.9898C335.96 78.2102 337.537 76.4307 339.115 76.4307C340.692 76.4307 342.269 77.617 342.269 79.9898Z" fill="#E5E5E5"/>
<path d="M409.566 79.9898C409.566 81.7693 407.989 83.5489 406.412 83.5489C404.834 83.5489 403.257 81.7693 403.257 79.9898C403.257 78.2102 404.834 76.4307 406.412 76.4307C407.989 76.4307 409.566 77.617 409.566 79.9898Z" fill="#E5E5E5"/>
<path d="M476.337 79.9898C476.337 81.7693 474.76 83.5489 473.183 83.5489C471.606 83.5489 470.028 81.7693 470.028 79.9898C470.028 78.2102 471.606 76.4307 473.183 76.4307C475.286 76.4307 476.337 77.617 476.337 79.9898Z" fill="#E5E5E5"/>
<path d="M543.635 79.9898C543.635 81.7693 542.057 83.5489 540.48 83.5489C538.903 83.5489 537.325 81.7693 537.325 79.9898C537.325 78.2102 538.903 76.4307 540.48 76.4307C542.057 76.4307 543.635 77.617 543.635 79.9898Z" fill="#E5E5E5"/>
<path d="M610.932 79.9898C610.932 81.7693 609.354 83.5489 607.777 83.5489C606.2 83.5489 604.623 81.7693 604.623 79.9898C604.623 78.2102 606.2 76.4307 607.777 76.4307C609.354 76.4307 610.932 77.617 610.932 79.9898Z" fill="#E5E5E5"/>
<path d="M678.229 79.9898C678.229 81.7693 676.651 83.5489 675.074 83.5489C673.497 83.5489 671.919 81.7693 671.919 79.9898C671.919 78.2102 673.497 76.4307 675.074 76.4307C676.651 76.4307 678.229 77.617 678.229 79.9898Z" fill="#E5E5E5"/>
<path d="M745 79.9898C745 81.7693 743.423 83.5489 741.845 83.5489C740.268 83.5489 738.691 81.7693 738.691 79.9898C738.691 78.2102 740.268 76.4307 741.845 76.4307C743.949 76.4307 745 77.617 745 79.9898Z" fill="#E5E5E5"/>
<path d="M6.30908 155.918C6.30908 157.697 4.73181 159.477 3.15454 159.477C1.57727 159.477 0 157.697 0 155.918C0 154.138 1.57727 152.358 3.15454 152.358C4.73181 152.358 6.30908 153.545 6.30908 155.918Z" fill="#E5E5E5"/>
<path d="M73.6062 155.916C73.6062 157.696 72.0289 159.475 70.4517 159.475C68.8744 159.475 67.2971 157.696 67.2971 155.916C67.2971 154.137 68.8744 152.357 70.4517 152.357C72.0289 151.764 73.6062 153.544 73.6062 155.916Z" fill="#E5E5E5"/>
<path d="M140.903 155.916C140.903 157.696 139.326 159.475 137.749 159.475C136.172 159.475 134.594 157.696 134.594 155.916C134.594 154.137 136.172 152.357 137.749 152.357C139.326 151.764 140.903 153.544 140.903 155.916Z" fill="#E5E5E5"/>
<path d="M208.201 155.916C208.201 157.696 206.623 159.475 205.046 159.475C203.469 159.475 201.892 157.696 201.892 155.916C201.892 154.137 203.469 152.357 205.046 152.357C206.623 151.764 208.201 153.544 208.201 155.916Z" fill="#E5E5E5"/>
<path d="M274.972 155.916C274.972 157.696 273.394 159.475 271.817 159.475C270.24 159.475 268.663 157.696 268.663 155.916C268.663 154.137 270.24 152.357 271.817 152.357C273.394 151.764 274.972 153.544 274.972 155.916Z" fill="#E5E5E5"/>
<path d="M342.269 155.918C342.269 157.697 340.692 159.477 339.115 159.477C337.537 159.477 335.96 157.697 335.96 155.918C335.96 154.138 337.537 152.358 339.115 152.358C340.692 152.358 342.269 153.545 342.269 155.918Z" fill="#E5E5E5"/>
<path d="M409.566 155.918C409.566 157.697 407.989 159.477 406.412 159.477C404.834 159.477 403.257 157.697 403.257 155.918C403.257 154.138 404.834 152.358 406.412 152.358C407.989 152.358 409.566 153.545 409.566 155.918Z" fill="#E5E5E5"/>
<path d="M476.337 155.916C476.337 157.696 474.76 159.475 473.183 159.475C471.606 159.475 470.028 157.696 470.028 155.916C470.028 154.137 471.606 152.357 473.183 152.357C475.286 151.764 476.337 153.544 476.337 155.916Z" fill="#E5E5E5"/>
<path d="M543.635 155.916C543.635 157.696 542.057 159.475 540.48 159.475C538.903 159.475 537.325 157.696 537.325 155.916C537.325 154.137 538.903 152.357 540.48 152.357C542.057 151.764 543.635 153.544 543.635 155.916Z" fill="#E5E5E5"/>
<path d="M610.932 155.916C610.932 157.696 609.354 159.475 607.777 159.475C606.2 159.475 604.623 157.696 604.623 155.916C604.623 154.137 606.2 152.357 607.777 152.357C609.354 151.764 610.932 153.544 610.932 155.916Z" fill="#E5E5E5"/>
<path d="M678.229 155.916C678.229 157.696 676.651 159.475 675.074 159.475C673.497 159.475 671.919 157.696 671.919 155.916C671.919 154.137 673.497 152.357 675.074 152.357C676.651 151.764 678.229 153.544 678.229 155.916Z" fill="#E5E5E5"/>
<path d="M745 155.916C745 157.696 743.423 159.475 741.845 159.475C740.268 159.475 738.691 157.696 738.691 155.916C738.691 154.137 740.268 152.357 741.845 152.357C743.949 151.764 745 153.544 745 155.916Z" fill="#E5E5E5"/>
<path d="M6.30908 231.251C6.30908 233.031 4.73181 234.811 3.15454 234.811C1.57727 234.811 0 233.624 0 231.251C0 229.472 1.57727 227.692 3.15454 227.692C4.73181 227.692 6.30908 229.472 6.30908 231.251Z" fill="#E5E5E5"/>
<path d="M73.6062 231.251C73.6062 233.031 72.0289 234.811 70.4517 234.811C68.8744 234.811 67.2971 233.031 67.2971 231.251C67.2971 229.472 68.8744 227.692 70.4517 227.692C72.0289 227.692 73.6062 229.472 73.6062 231.251Z" fill="#E5E5E5"/>
<path d="M140.903 231.251C140.903 233.031 139.326 234.811 137.749 234.811C136.172 234.811 134.594 233.031 134.594 231.251C134.594 229.472 136.172 227.692 137.749 227.692C139.326 227.692 140.903 229.472 140.903 231.251Z" fill="#E5E5E5"/>
<path d="M208.201 231.251C208.201 233.031 206.623 234.811 205.046 234.811C203.469 234.811 201.892 233.031 201.892 231.251C201.892 229.472 203.469 227.692 205.046 227.692C206.623 227.692 208.201 229.472 208.201 231.251Z" fill="#E5E5E5"/>
<path d="M274.972 231.251C274.972 233.031 273.394 234.811 271.817 234.811C270.24 234.811 268.663 233.031 268.663 231.251C268.663 229.472 270.24 227.692 271.817 227.692C273.394 227.692 274.972 229.472 274.972 231.251Z" fill="#E5E5E5"/>
<path d="M342.269 231.251C342.269 233.031 340.692 234.811 339.115 234.811C337.537 234.811 335.96 233.031 335.96 231.251C335.96 229.472 337.537 227.692 339.115 227.692C340.692 227.692 342.269 229.472 342.269 231.251Z" fill="#E5E5E5"/>
<path d="M409.566 231.251C409.566 233.031 407.989 234.811 406.412 234.811C404.834 234.811 403.257 233.031 403.257 231.251C403.257 229.472 404.834 227.692 406.412 227.692C407.989 227.692 409.566 229.472 409.566 231.251Z" fill="#E5E5E5"/>
<path d="M476.337 231.251C476.337 233.031 474.76 234.811 473.183 234.811C471.606 234.811 470.028 233.031 470.028 231.251C470.028 229.472 471.606 227.692 473.183 227.692C475.286 227.692 476.337 229.472 476.337 231.251Z" fill="#E5E5E5"/>
<path d="M543.635 231.251C543.635 233.031 542.057 234.811 540.48 234.811C538.903 234.811 537.325 233.031 537.325 231.251C537.325 229.472 538.903 227.692 540.48 227.692C542.057 227.692 543.635 229.472 543.635 231.251Z" fill="#E5E5E5"/>
<path d="M610.932 231.251C610.932 233.031 609.354 234.811 607.777 234.811C606.2 234.811 604.623 233.031 604.623 231.251C604.623 229.472 606.2 227.692 607.777 227.692C609.354 227.692 610.932 229.472 610.932 231.251Z" fill="#E5E5E5"/>
<path d="M678.229 231.251C678.229 233.031 676.651 234.811 675.074 234.811C673.497 234.811 671.919 233.031 671.919 231.251C671.919 229.472 673.497 227.692 675.074 227.692C676.651 227.692 678.229 229.472 678.229 231.251Z" fill="#E5E5E5"/>
<path d="M745 231.251C745 233.031 743.423 234.811 741.845 234.811C740.268 234.811 738.691 233.031 738.691 231.251C738.691 229.472 740.268 227.692 741.845 227.692C743.949 227.692 745 229.472 745 231.251Z" fill="#E5E5E5"/>
<path d="M6.30908 307.179C6.30908 308.959 4.73181 310.738 3.15454 310.738C1.57727 310.738 0 308.959 0 307.179C0 305.4 1.57727 303.62 3.15454 303.62C4.73181 303.62 6.30908 305.4 6.30908 307.179Z" fill="#E5E5E5"/>
<path d="M73.6062 307.179C73.6062 308.959 72.0289 310.738 70.4517 310.738C68.8744 310.738 67.2971 308.959 67.2971 307.179C67.2971 305.4 68.8744 303.62 70.4517 303.62C72.0289 303.62 73.6062 305.4 73.6062 307.179Z" fill="#E5E5E5"/>
<path d="M140.903 307.179C140.903 308.959 139.326 310.738 137.749 310.738C136.172 310.738 134.594 308.959 134.594 307.179C134.594 305.4 136.172 303.62 137.749 303.62C139.326 303.62 140.903 305.4 140.903 307.179Z" fill="#E5E5E5"/>
<path d="M208.201 307.179C208.201 308.959 206.623 310.738 205.046 310.738C203.469 310.738 201.892 308.959 201.892 307.179C201.892 305.4 203.469 303.62 205.046 303.62C206.623 303.62 208.201 305.4 208.201 307.179Z" fill="#E5E5E5"/>
<path d="M274.972 307.179C274.972 308.959 273.394 310.738 271.817 310.738C270.24 310.738 268.663 308.959 268.663 307.179C268.663 305.4 270.24 303.62 271.817 303.62C273.394 303.62 274.972 305.4 274.972 307.179Z" fill="#E5E5E5"/>
<path d="M342.269 307.179C342.269 308.959 340.692 310.738 339.115 310.738C337.537 310.738 335.96 308.959 335.96 307.179C335.96 305.4 337.537 303.62 339.115 303.62C340.692 303.62 342.269 305.4 342.269 307.179Z" fill="#E5E5E5"/>
<path d="M409.566 307.179C409.566 308.959 407.989 310.738 406.412 310.738C404.834 310.738 403.257 308.959 403.257 307.179C403.257 305.4 404.834 303.62 406.412 303.62C407.989 303.62 409.566 305.4 409.566 307.179Z" fill="#E5E5E5"/>
<path d="M476.337 307.179C476.337 308.959 474.76 310.738 473.183 310.738C471.606 310.738 470.028 308.959 470.028 307.179C470.028 305.4 471.606 303.62 473.183 303.62C475.286 303.62 476.337 305.4 476.337 307.179Z" fill="#E5E5E5"/>
<path d="M543.635 307.179C543.635 308.959 542.057 310.738 540.48 310.738C538.903 310.738 537.325 308.959 537.325 307.179C537.325 305.4 538.903 303.62 540.48 303.62C542.057 303.62 543.635 305.4 543.635 307.179Z" fill="#E5E5E5"/>
<path d="M610.932 307.179C610.932 308.959 609.354 310.738 607.777 310.738C606.2 310.738 604.623 308.959 604.623 307.179C604.623 305.4 606.2 303.62 607.777 303.62C609.354 303.62 610.932 305.4 610.932 307.179Z" fill="#E5E5E5"/>
<path d="M678.229 307.179C678.229 308.959 676.651 310.738 675.074 310.738C673.497 310.738 671.919 308.959 671.919 307.179C671.919 305.4 673.497 303.62 675.074 303.62C676.651 303.62 678.229 305.4 678.229 307.179Z" fill="#E5E5E5"/>
<path d="M745 307.179C745 308.959 743.423 310.738 741.845 310.738C740.268 310.738 738.691 308.959 738.691 307.179C738.691 305.4 740.268 303.62 741.845 303.62C743.949 303.62 745 305.4 745 307.179Z" fill="#E5E5E5"/>
<path d="M6.30908 383.105C6.30908 384.885 4.73181 386.664 3.15454 386.664C1.57727 386.664 0 384.885 0 383.105C0 381.326 1.57727 379.546 3.15454 379.546C4.73181 379.546 6.30908 380.733 6.30908 383.105Z" fill="#E5E5E5"/>
<path d="M73.6062 383.105C73.6062 384.885 72.0289 386.664 70.4517 386.664C68.8744 386.664 67.2971 384.885 67.2971 383.105C67.2971 381.326 68.8744 379.546 70.4517 379.546C72.0289 379.546 73.6062 380.733 73.6062 383.105Z" fill="#E5E5E5"/>
<path d="M140.903 383.105C140.903 384.885 139.326 386.664 137.749 386.664C136.172 386.664 134.594 384.885 134.594 383.105C134.594 381.326 136.172 379.546 137.749 379.546C139.326 379.546 140.903 380.733 140.903 383.105Z" fill="#E5E5E5"/>
<path d="M208.201 383.105C208.201 384.885 206.623 386.664 205.046 386.664C203.469 386.664 201.892 384.885 201.892 383.105C201.892 381.326 203.469 379.546 205.046 379.546C206.623 379.546 208.201 380.733 208.201 383.105Z" fill="#E5E5E5"/>
<path d="M274.972 383.105C274.972 384.885 273.394 386.664 271.817 386.664C270.24 386.664 268.663 384.885 268.663 383.105C268.663 381.326 270.24 379.546 271.817 379.546C273.394 379.546 274.972 380.733 274.972 383.105Z" fill="#E5E5E5"/>
<path d="M342.269 383.105C342.269 384.885 340.692 386.664 339.115 386.664C337.537 386.664 335.96 384.885 335.96 383.105C335.96 381.326 337.537 379.546 339.115 379.546C340.692 379.546 342.269 380.733 342.269 383.105Z" fill="#E5E5E5"/>
<path d="M409.566 383.105C409.566 384.885 407.989 386.664 406.412 386.664C404.834 386.664 403.257 384.885 403.257 383.105C403.257 381.326 404.834 379.546 406.412 379.546C407.989 379.546 409.566 380.733 409.566 383.105Z" fill="#E5E5E5"/>
<path d="M476.337 383.105C476.337 384.885 474.76 386.664 473.183 386.664C471.606 386.664 470.028 384.885 470.028 383.105C470.028 381.326 471.606 379.546 473.183 379.546C475.286 379.546 476.337 380.733 476.337 383.105Z" fill="#E5E5E5"/>
<path d="M543.635 383.105C543.635 384.885 542.057 386.664 540.48 386.664C538.903 386.664 537.325 384.885 537.325 383.105C537.325 381.326 538.903 379.546 540.48 379.546C542.057 379.546 543.635 380.733 543.635 383.105Z" fill="#E5E5E5"/>
<path d="M610.932 383.105C610.932 384.885 609.354 386.664 607.777 386.664C606.2 386.664 604.623 384.885 604.623 383.105C604.623 381.326 606.2 379.546 607.777 379.546C609.354 379.546 610.932 380.733 610.932 383.105Z" fill="#E5E5E5"/>
<path d="M678.229 383.105C678.229 384.885 676.651 386.664 675.074 386.664C673.497 386.664 671.919 384.885 671.919 383.105C671.919 381.326 673.497 379.546 675.074 379.546C676.651 379.546 678.229 380.733 678.229 383.105Z" fill="#E5E5E5"/>
<path d="M745 383.105C745 384.885 743.423 386.664 741.845 386.664C740.268 386.664 738.691 384.885 738.691 383.105C738.691 381.326 740.268 379.546 741.845 379.546C743.949 379.546 745 380.733 745 383.105Z" fill="#E5E5E5"/>
<path d="M6.30908 459.033C6.30908 460.813 4.73181 462.592 3.15454 462.592C1.57727 462.592 0 460.813 0 459.033C0 457.254 1.57727 455.474 3.15454 455.474C4.73181 455.474 6.30908 456.661 6.30908 459.033Z" fill="#E5E5E5"/>
<path d="M73.6062 459.034C73.6062 460.814 72.0289 462.593 70.4517 462.593C68.8744 462.593 67.2971 460.814 67.2971 459.034C67.2971 457.254 68.8744 455.475 70.4517 455.475C72.0289 454.882 73.6062 456.661 73.6062 459.034Z" fill="#E5E5E5"/>
<path d="M140.903 459.034C140.903 460.814 139.326 462.593 137.749 462.593C136.172 462.593 134.594 460.814 134.594 459.034C134.594 457.254 136.172 455.475 137.749 455.475C139.326 454.882 140.903 456.661 140.903 459.034Z" fill="#E5E5E5"/>
<path d="M208.201 459.034C208.201 460.814 206.623 462.593 205.046 462.593C203.469 462.593 201.892 460.814 201.892 459.034C201.892 457.254 203.469 455.475 205.046 455.475C206.623 454.882 208.201 456.661 208.201 459.034Z" fill="#E5E5E5"/>
<path d="M274.972 459.034C274.972 460.814 273.394 462.593 271.817 462.593C270.24 462.593 268.663 460.814 268.663 459.034C268.663 457.254 270.24 455.475 271.817 455.475C273.394 454.882 274.972 456.661 274.972 459.034Z" fill="#E5E5E5"/>
<path d="M342.269 459.033C342.269 460.813 340.692 462.592 339.115 462.592C337.537 462.592 335.96 460.813 335.96 459.033C335.96 457.254 337.537 455.474 339.115 455.474C340.692 455.474 342.269 456.661 342.269 459.033Z" fill="#E5E5E5"/>
<path d="M409.566 459.033C409.566 460.813 407.989 462.592 406.412 462.592C404.834 462.592 403.257 460.813 403.257 459.033C403.257 457.254 404.834 455.474 406.412 455.474C407.989 455.474 409.566 456.661 409.566 459.033Z" fill="#E5E5E5"/>
<path d="M476.337 459.034C476.337 460.814 474.76 462.593 473.183 462.593C471.606 462.593 470.028 460.814 470.028 459.034C470.028 457.254 471.606 455.475 473.183 455.475C475.286 454.882 476.337 456.661 476.337 459.034Z" fill="#E5E5E5"/>
<path d="M543.635 459.034C543.635 460.814 542.057 462.593 540.48 462.593C538.903 462.593 537.325 460.814 537.325 459.034C537.325 457.254 538.903 455.475 540.48 455.475C542.057 454.882 543.635 456.661 543.635 459.034Z" fill="#E5E5E5"/>
<path d="M610.932 459.034C610.932 460.814 609.354 462.593 607.777 462.593C606.2 462.593 604.623 460.814 604.623 459.034C604.623 457.254 606.2 455.475 607.777 455.475C609.354 454.882 610.932 456.661 610.932 459.034Z" fill="#E5E5E5"/>
<path d="M678.229 459.034C678.229 460.814 676.651 462.593 675.074 462.593C673.497 462.593 671.919 460.814 671.919 459.034C671.919 457.254 673.497 455.475 675.074 455.475C676.651 454.882 678.229 456.661 678.229 459.034Z" fill="#E5E5E5"/>
<path d="M745 459.034C745 460.814 743.423 462.593 741.845 462.593C740.268 462.593 738.691 460.814 738.691 459.034C738.691 457.254 740.268 455.475 741.845 455.475C743.949 454.882 745 456.661 745 459.034Z" fill="#E5E5E5"/>
<path d="M6.30908 534.368C6.30908 536.147 4.73181 537.927 3.15454 537.927C1.57727 537.927 0 536.74 0 534.368C0 532.588 1.57727 530.809 3.15454 530.809C4.73181 530.809 6.30908 532.588 6.30908 534.368Z" fill="#E5E5E5"/>
<path d="M73.6062 534.368C73.6062 536.147 72.0289 537.927 70.4517 537.927C68.8744 537.927 67.2971 536.147 67.2971 534.368C67.2971 532.588 68.8744 530.809 70.4517 530.809C72.0289 530.809 73.6062 532.588 73.6062 534.368Z" fill="#E5E5E5"/>
<path d="M140.903 534.368C140.903 536.147 139.326 537.927 137.749 537.927C136.172 537.927 134.594 536.147 134.594 534.368C134.594 532.588 136.172 530.809 137.749 530.809C139.326 530.809 140.903 532.588 140.903 534.368Z" fill="#E5E5E5"/>
<path d="M208.201 534.368C208.201 536.147 206.623 537.927 205.046 537.927C203.469 537.927 201.892 536.147 201.892 534.368C201.892 532.588 203.469 530.809 205.046 530.809C206.623 530.809 208.201 532.588 208.201 534.368Z" fill="#E5E5E5"/>
<path d="M274.972 534.368C274.972 536.147 273.394 537.927 271.817 537.927C270.24 537.927 268.663 536.147 268.663 534.368C268.663 532.588 270.24 530.809 271.817 530.809C273.394 530.809 274.972 532.588 274.972 534.368Z" fill="#E5E5E5"/>
<path d="M342.269 534.368C342.269 536.147 340.692 537.927 339.115 537.927C337.537 537.927 335.96 536.147 335.96 534.368C335.96 532.588 337.537 530.809 339.115 530.809C340.692 530.809 342.269 532.588 342.269 534.368Z" fill="#E5E5E5"/>
<path d="M409.566 534.368C409.566 536.147 407.989 537.927 406.412 537.927C404.834 537.927 403.257 536.147 403.257 534.368C403.257 532.588 404.834 530.809 406.412 530.809C407.989 530.809 409.566 532.588 409.566 534.368Z" fill="#E5E5E5"/>
<path d="M476.337 534.368C476.337 536.147 474.76 537.927 473.183 537.927C471.606 537.927 470.028 536.147 470.028 534.368C470.028 532.588 471.606 530.809 473.183 530.809C475.286 530.809 476.337 532.588 476.337 534.368Z" fill="#E5E5E5"/>
<path d="M543.635 534.368C543.635 536.147 542.057 537.927 540.48 537.927C538.903 537.927 537.325 536.147 537.325 534.368C537.325 532.588 538.903 530.809 540.48 530.809C542.057 530.809 543.635 532.588 543.635 534.368Z" fill="#E5E5E5"/>
<path d="M610.932 534.368C610.932 536.147 609.354 537.927 607.777 537.927C606.2 537.927 604.623 536.147 604.623 534.368C604.623 532.588 606.2 530.809 607.777 530.809C609.354 530.809 610.932 532.588 610.932 534.368Z" fill="#E5E5E5"/>
<path d="M678.229 534.368C678.229 536.147 676.651 537.927 675.074 537.927C673.497 537.927 671.919 536.147 671.919 534.368C671.919 532.588 673.497 530.809 675.074 530.809C676.651 530.809 678.229 532.588 678.229 534.368Z" fill="#E5E5E5"/>
<path d="M745 534.368C745 536.147 743.423 537.927 741.845 537.927C740.268 537.927 738.691 536.147 738.691 534.368C738.691 532.588 740.268 530.809 741.845 530.809C743.949 530.809 745 532.588 745 534.368Z" fill="#E5E5E5"/>
<path d="M6.30908 610.295C6.30908 612.075 4.73181 613.854 3.15454 613.854C1.57727 613.854 0 612.075 0 610.295C0 608.516 1.57727 606.736 3.15454 606.736C4.73181 606.736 6.30908 608.516 6.30908 610.295Z" fill="#E5E5E5"/>
<path d="M73.6062 610.295C73.6062 612.075 72.0289 613.854 70.4517 613.854C68.8744 613.854 67.2971 612.075 67.2971 610.295C67.2971 608.516 68.8744 606.736 70.4517 606.736C72.0289 606.736 73.6062 608.516 73.6062 610.295Z" fill="#E5E5E5"/>
<path d="M140.903 610.295C140.903 612.075 139.326 613.854 137.749 613.854C136.172 613.854 134.594 612.075 134.594 610.295C134.594 608.516 136.172 606.736 137.749 606.736C139.326 606.736 140.903 608.516 140.903 610.295Z" fill="#E5E5E5"/>
<path d="M208.201 610.295C208.201 612.075 206.623 613.854 205.046 613.854C203.469 613.854 201.892 612.075 201.892 610.295C201.892 608.516 203.469 606.736 205.046 606.736C206.623 606.736 208.201 608.516 208.201 610.295Z" fill="#E5E5E5"/>
<path d="M274.972 610.295C274.972 612.075 273.394 613.854 271.817 613.854C270.24 613.854 268.663 612.075 268.663 610.295C268.663 608.516 270.24 606.736 271.817 606.736C273.394 606.736 274.972 608.516 274.972 610.295Z" fill="#E5E5E5"/>
<path d="M342.269 610.295C342.269 612.075 340.692 613.854 339.115 613.854C337.537 613.854 335.96 612.075 335.96 610.295C335.96 608.516 337.537 606.736 339.115 606.736C340.692 606.736 342.269 608.516 342.269 610.295Z" fill="#E5E5E5"/>
<path d="M409.566 610.295C409.566 612.075 407.989 613.854 406.412 613.854C404.834 613.854 403.257 612.075 403.257 610.295C403.257 608.516 404.834 606.736 406.412 606.736C407.989 606.736 409.566 608.516 409.566 610.295Z" fill="#E5E5E5"/>
<path d="M476.337 610.295C476.337 612.075 474.76 613.854 473.183 613.854C471.606 613.854 470.028 612.075 470.028 610.295C470.028 608.516 471.606 606.736 473.183 606.736C475.286 606.736 476.337 608.516 476.337 610.295Z" fill="#E5E5E5"/>
<path d="M543.635 610.295C543.635 612.075 542.057 613.854 540.48 613.854C538.903 613.854 537.325 612.075 537.325 610.295C537.325 608.516 538.903 606.736 540.48 606.736C542.057 606.736 543.635 608.516 543.635 610.295Z" fill="#E5E5E5"/>
<path d="M610.932 610.295C610.932 612.075 609.354 613.854 607.777 613.854C606.2 613.854 604.623 612.075 604.623 610.295C604.623 608.516 606.2 606.736 607.777 606.736C609.354 606.736 610.932 608.516 610.932 610.295Z" fill="#E5E5E5"/>
<path d="M678.229 610.295C678.229 612.075 676.651 613.854 675.074 613.854C673.497 613.854 671.919 612.075 671.919 610.295C671.919 608.516 673.497 606.736 675.074 606.736C676.651 606.736 678.229 608.516 678.229 610.295Z" fill="#E5E5E5"/>
<path d="M745 610.295C745 612.075 743.423 613.854 741.845 613.854C740.268 613.854 738.691 612.075 738.691 610.295C738.691 608.516 740.268 606.736 741.845 606.736C743.949 606.736 745 608.516 745 610.295Z" fill="#E5E5E5"/>
<path d="M6.30908 686.223C6.30908 688.002 4.73181 689.782 3.15454 689.782C1.57727 689.782 0 688.002 0 686.223C0 684.443 1.57727 682.664 3.15454 682.664C4.73181 682.664 6.30908 683.85 6.30908 686.223Z" fill="#E5E5E5"/>
<path d="M73.6062 686.223C73.6062 688.002 72.0289 689.782 70.4517 689.782C68.8744 689.782 67.2971 688.002 67.2971 686.223C67.2971 684.443 68.8744 682.664 70.4517 682.664C72.0289 682.664 73.6062 683.85 73.6062 686.223Z" fill="#E5E5E5"/>
<path d="M140.903 686.223C140.903 688.002 139.326 689.782 137.749 689.782C136.172 689.782 134.594 688.002 134.594 686.223C134.594 684.443 136.172 682.664 137.749 682.664C139.326 682.664 140.903 683.85 140.903 686.223Z" fill="#E5E5E5"/>
<path d="M208.201 686.223C208.201 688.002 206.623 689.782 205.046 689.782C203.469 689.782 201.892 688.002 201.892 686.223C201.892 684.443 203.469 682.664 205.046 682.664C206.623 682.664 208.201 683.85 208.201 686.223Z" fill="#E5E5E5"/>
<path d="M274.972 686.223C274.972 688.002 273.394 689.782 271.817 689.782C270.24 689.782 268.663 688.002 268.663 686.223C268.663 684.443 270.24 682.664 271.817 682.664C273.394 682.664 274.972 683.85 274.972 686.223Z" fill="#E5E5E5"/>
<path d="M342.269 686.223C342.269 688.002 340.692 689.782 339.115 689.782C337.537 689.782 335.96 688.002 335.96 686.223C335.96 684.443 337.537 682.664 339.115 682.664C340.692 682.664 342.269 683.85 342.269 686.223Z" fill="#E5E5E5"/>
<path d="M409.566 686.223C409.566 688.002 407.989 689.782 406.412 689.782C404.834 689.782 403.257 688.002 403.257 686.223C403.257 684.443 404.834 682.664 406.412 682.664C407.989 682.664 409.566 683.85 409.566 686.223Z" fill="#E5E5E5"/>
<path d="M476.337 686.223C476.337 688.002 474.76 689.782 473.183 689.782C471.606 689.782 470.028 688.002 470.028 686.223C470.028 684.443 471.606 682.664 473.183 682.664C475.286 682.664 476.337 683.85 476.337 686.223Z" fill="#E5E5E5"/>
<path d="M543.635 686.223C543.635 688.002 542.057 689.782 540.48 689.782C538.903 689.782 537.325 688.002 537.325 686.223C537.325 684.443 538.903 682.664 540.48 682.664C542.057 682.664 543.635 683.85 543.635 686.223Z" fill="#E5E5E5"/>
<path d="M610.932 686.223C610.932 688.002 609.354 689.782 607.777 689.782C606.2 689.782 604.623 688.002 604.623 686.223C604.623 684.443 606.2 682.664 607.777 682.664C609.354 682.664 610.932 683.85 610.932 686.223Z" fill="#E5E5E5"/>
<path d="M678.229 686.223C678.229 688.002 676.651 689.782 675.074 689.782C673.497 689.782 671.919 688.002 671.919 686.223C671.919 684.443 673.497 682.664 675.074 682.664C676.651 682.664 678.229 683.85 678.229 686.223Z" fill="#E5E5E5"/>
<path d="M745 686.223C745 688.002 743.423 689.782 741.845 689.782C740.268 689.782 738.691 688.002 738.691 686.223C738.691 684.443 740.268 682.664 741.845 682.664C743.949 682.664 745 683.85 745 686.223Z" fill="#E5E5E5"/>
<path d="M6.30908 761.557C6.30908 763.337 4.73181 765.116 3.15454 765.116C1.57727 765.116 0 763.93 0 761.557C0 759.778 1.57727 757.998 3.15454 757.998C4.73181 757.998 6.30908 759.778 6.30908 761.557Z" fill="#E5E5E5"/>
<path d="M73.6062 761.557C73.6062 763.337 72.0289 765.116 70.4517 765.116C68.8744 765.116 67.2971 763.337 67.2971 761.557C67.2971 759.778 68.8744 757.998 70.4517 757.998C72.0289 757.998 73.6062 759.778 73.6062 761.557Z" fill="#E5E5E5"/>
<path d="M140.903 761.557C140.903 763.337 139.326 765.116 137.749 765.116C136.172 765.116 134.594 763.337 134.594 761.557C134.594 759.778 136.172 757.998 137.749 757.998C139.326 757.998 140.903 759.778 140.903 761.557Z" fill="#E5E5E5"/>
<path d="M208.201 761.557C208.201 763.337 206.623 765.116 205.046 765.116C203.469 765.116 201.892 763.337 201.892 761.557C201.892 759.778 203.469 757.998 205.046 757.998C206.623 757.998 208.201 759.778 208.201 761.557Z" fill="#E5E5E5"/>
<path d="M274.972 761.557C274.972 763.337 273.394 765.116 271.817 765.116C270.24 765.116 268.663 763.337 268.663 761.557C268.663 759.778 270.24 757.998 271.817 757.998C273.394 757.998 274.972 759.778 274.972 761.557Z" fill="#E5E5E5"/>
<path d="M342.269 761.557C342.269 763.337 340.692 765.116 339.115 765.116C337.537 765.116 335.96 763.337 335.96 761.557C335.96 759.778 337.537 757.998 339.115 757.998C340.692 757.998 342.269 759.778 342.269 761.557Z" fill="#E5E5E5"/>
<path d="M409.566 761.557C409.566 763.337 407.989 765.116 406.412 765.116C404.834 765.116 403.257 763.337 403.257 761.557C403.257 759.778 404.834 757.998 406.412 757.998C407.989 757.998 409.566 759.778 409.566 761.557Z" fill="#E5E5E5"/>
<path d="M476.337 761.557C476.337 763.337 474.76 765.116 473.183 765.116C471.606 765.116 470.028 763.337 470.028 761.557C470.028 759.778 471.606 757.998 473.183 757.998C475.286 757.998 476.337 759.778 476.337 761.557Z" fill="#E5E5E5"/>
<path d="M543.635 761.557C543.635 763.337 542.057 765.116 540.48 765.116C538.903 765.116 537.325 763.337 537.325 761.557C537.325 759.778 538.903 757.998 540.48 757.998C542.057 757.998 543.635 759.778 543.635 761.557Z" fill="#E5E5E5"/>
<path d="M610.932 761.557C610.932 763.337 609.354 765.116 607.777 765.116C606.2 765.116 604.623 763.337 604.623 761.557C604.623 759.778 606.2 757.998 607.777 757.998C609.354 757.998 610.932 759.778 610.932 761.557Z" fill="#E5E5E5"/>
<path d="M678.229 761.557C678.229 763.337 676.651 765.116 675.074 765.116C673.497 765.116 671.919 763.337 671.919 761.557C671.919 759.778 673.497 757.998 675.074 757.998C676.651 757.998 678.229 759.778 678.229 761.557Z" fill="#E5E5E5"/>
<path d="M745 761.557C745 763.337 743.423 765.116 741.845 765.116C740.268 765.116 738.691 763.337 738.691 761.557C738.691 759.778 740.268 757.998 741.845 757.998C743.949 757.998 745 759.778 745 761.557Z" fill="#E5E5E5"/>
<path d="M6.30908 837.485C6.30908 839.264 4.73181 841.044 3.15454 841.044C1.57727 841.044 0 839.858 0 837.485C0 835.705 1.57727 833.926 3.15454 833.926C4.73181 833.926 6.30908 835.705 6.30908 837.485Z" fill="#E5E5E5"/>
<path d="M73.6062 837.485C73.6062 839.264 72.0289 841.044 70.4517 841.044C68.8744 841.044 67.2971 839.264 67.2971 837.485C67.2971 835.705 68.8744 833.926 70.4517 833.926C72.0289 833.926 73.6062 835.705 73.6062 837.485Z" fill="#E5E5E5"/>
<path d="M140.903 837.485C140.903 839.264 139.326 841.044 137.749 841.044C136.172 841.044 134.594 839.264 134.594 837.485C134.594 835.705 136.172 833.926 137.749 833.926C139.326 833.926 140.903 835.705 140.903 837.485Z" fill="#E5E5E5"/>
<path d="M208.201 837.485C208.201 839.264 206.623 841.044 205.046 841.044C203.469 841.044 201.892 839.264 201.892 837.485C201.892 835.705 203.469 833.926 205.046 833.926C206.623 833.926 208.201 835.705 208.201 837.485Z" fill="#E5E5E5"/>
<path d="M274.972 837.485C274.972 839.264 273.394 841.044 271.817 841.044C270.24 841.044 268.663 839.264 268.663 837.485C268.663 835.705 270.24 833.926 271.817 833.926C273.394 833.926 274.972 835.705 274.972 837.485Z" fill="#E5E5E5"/>
<path d="M342.269 837.485C342.269 839.264 340.692 841.044 339.115 841.044C337.537 841.044 335.96 839.264 335.96 837.485C335.96 835.705 337.537 833.926 339.115 833.926C340.692 833.926 342.269 835.705 342.269 837.485Z" fill="#E5E5E5"/>
<path d="M409.566 837.485C409.566 839.264 407.989 841.044 406.412 841.044C404.834 841.044 403.257 839.264 403.257 837.485C403.257 835.705 404.834 833.926 406.412 833.926C407.989 833.926 409.566 835.705 409.566 837.485Z" fill="#E5E5E5"/>
<path d="M476.337 837.485C476.337 839.264 474.76 841.044 473.183 841.044C471.606 841.044 470.028 839.264 470.028 837.485C470.028 835.705 471.606 833.926 473.183 833.926C475.286 833.926 476.337 835.705 476.337 837.485Z" fill="#E5E5E5"/>
<path d="M543.635 837.485C543.635 839.264 542.057 841.044 540.48 841.044C538.903 841.044 537.325 839.264 537.325 837.485C537.325 835.705 538.903 833.926 540.48 833.926C542.057 833.926 543.635 835.705 543.635 837.485Z" fill="#E5E5E5"/>
<path d="M610.932 837.485C610.932 839.264 609.354 841.044 607.777 841.044C606.2 841.044 604.623 839.264 604.623 837.485C604.623 835.705 606.2 833.926 607.777 833.926C609.354 833.926 610.932 835.705 610.932 837.485Z" fill="#E5E5E5"/>
<path d="M678.229 837.485C678.229 839.264 676.651 841.044 675.074 841.044C673.497 841.044 671.919 839.264 671.919 837.485C671.919 835.705 673.497 833.926 675.074 833.926C676.651 833.926 678.229 835.705 678.229 837.485Z" fill="#E5E5E5"/>
<path d="M745 837.485C745 839.264 743.423 841.044 741.845 841.044C740.268 841.044 738.691 839.264 738.691 837.485C738.691 835.705 740.268 833.926 741.845 833.926C743.949 833.926 745 835.705 745 837.485Z" fill="#E5E5E5"/>
</svg>
