<svg width="214" height="176" viewBox="0 0 214 176" fill="none" xmlns="http://www.w3.org/2000/svg">
<circle cx="2.93272" cy="2.93272" r="2.93272" fill="#CACAD5"/>
<circle cx="2.93272" cy="21.8325" r="2.93272" fill="#CACAD5"/>
<circle cx="2.93272" cy="40.7323" r="2.93272" fill="#CACAD5"/>
<circle cx="2.93272" cy="59.6321" r="2.93272" fill="#CACAD5"/>
<circle cx="2.93272" cy="78.5318" r="2.93272" fill="#CACAD5"/>
<circle cx="2.93272" cy="97.4316" r="2.93272" fill="#CACAD5"/>
<circle cx="2.93272" cy="116.331" r="2.93272" fill="#CACAD5"/>
<circle cx="2.93272" cy="135.231" r="2.93272" fill="#CACAD5"/>
<circle cx="2.93272" cy="154.131" r="2.93272" fill="#CACAD5"/>
<circle cx="2.93272" cy="173.031" r="2.93272" fill="#CACAD5"/>
<circle cx="78.5323" cy="2.93272" r="2.93272" fill="#CACAD5"/>
<circle cx="78.5323" cy="21.8325" r="2.93272" fill="#CACAD5"/>
<circle cx="78.5323" cy="40.7323" r="2.93272" fill="#CACAD5"/>
<circle cx="78.5323" cy="59.6321" r="2.93272" fill="#CACAD5"/>
<circle cx="78.5323" cy="78.5318" r="2.93272" fill="#CACAD5"/>
<circle cx="78.5323" cy="97.4316" r="2.93272" fill="#CACAD5"/>
<circle cx="78.5323" cy="116.331" r="2.93272" fill="#CACAD5"/>
<circle cx="78.5323" cy="135.231" r="2.93272" fill="#CACAD5"/>
<circle cx="78.5323" cy="154.131" r="2.93272" fill="#CACAD5"/>
<circle cx="78.5323" cy="173.031" r="2.93272" fill="#CACAD5"/>
<circle cx="154.13" cy="2.93272" r="2.93272" fill="#CACAD5"/>
<circle cx="154.13" cy="21.8325" r="2.93272" fill="#CACAD5"/>
<circle cx="154.13" cy="40.7323" r="2.93272" fill="#CACAD5"/>
<circle cx="154.13" cy="59.6321" r="2.93272" fill="#CACAD5"/>
<circle cx="154.13" cy="78.5318" r="2.93272" fill="#CACAD5"/>
<circle cx="154.13" cy="97.4316" r="2.93272" fill="#CACAD5"/>
<circle cx="154.13" cy="116.331" r="2.93272" fill="#CACAD5"/>
<circle cx="154.13" cy="135.231" r="2.93272" fill="#CACAD5"/>
<circle cx="154.13" cy="154.131" r="2.93272" fill="#CACAD5"/>
<circle cx="154.13" cy="173.031" r="2.93272" fill="#CACAD5"/>
<circle cx="40.7316" cy="2.93272" r="2.93272" fill="#CACAD5"/>
<circle cx="40.7316" cy="21.8325" r="2.93272" fill="#CACAD5"/>
<circle cx="40.7316" cy="40.7323" r="2.93272" fill="#CACAD5"/>
<circle cx="40.7316" cy="59.6321" r="2.93272" fill="#CACAD5"/>
<circle cx="40.7316" cy="78.5318" r="2.93272" fill="#CACAD5"/>
<circle cx="40.7316" cy="97.4316" r="2.93272" fill="#CACAD5"/>
<circle cx="40.7316" cy="116.331" r="2.93272" fill="#CACAD5"/>
<circle cx="40.7316" cy="135.231" r="2.93272" fill="#CACAD5"/>
<circle cx="40.7316" cy="154.131" r="2.93272" fill="#CACAD5"/>
<circle cx="40.7316" cy="173.031" r="2.93272" fill="#CACAD5"/>
<circle cx="116.331" cy="2.93272" r="2.93272" fill="#CACAD5"/>
<circle cx="116.331" cy="21.8325" r="2.93272" fill="#CACAD5"/>
<circle cx="116.331" cy="40.7323" r="2.93272" fill="#CACAD5"/>
<circle cx="116.331" cy="59.6321" r="2.93272" fill="#CACAD5"/>
<circle cx="116.331" cy="78.5318" r="2.93272" fill="#CACAD5"/>
<circle cx="116.331" cy="97.4316" r="2.93272" fill="#CACAD5"/>
<circle cx="116.331" cy="116.331" r="2.93272" fill="#CACAD5"/>
<circle cx="116.331" cy="135.231" r="2.93272" fill="#CACAD5"/>
<circle cx="116.331" cy="154.131" r="2.93272" fill="#CACAD5"/>
<circle cx="116.331" cy="173.031" r="2.93272" fill="#CACAD5"/>
<circle cx="191.931" cy="2.93272" r="2.93272" fill="#CACAD5"/>
<circle cx="191.931" cy="21.8325" r="2.93272" fill="#CACAD5"/>
<circle cx="191.931" cy="40.7323" r="2.93272" fill="#CACAD5"/>
<circle cx="191.931" cy="59.6321" r="2.93272" fill="#CACAD5"/>
<circle cx="191.931" cy="78.5318" r="2.93272" fill="#CACAD5"/>
<circle cx="191.931" cy="97.4316" r="2.93272" fill="#CACAD5"/>
<circle cx="191.931" cy="116.331" r="2.93272" fill="#CACAD5"/>
<circle cx="191.931" cy="135.231" r="2.93272" fill="#CACAD5"/>
<circle cx="191.931" cy="154.131" r="2.93272" fill="#CACAD5"/>
<circle cx="191.931" cy="173.031" r="2.93272" fill="#CACAD5"/>
<circle cx="21.8331" cy="2.93272" r="2.93272" fill="#CACAD5"/>
<circle cx="21.8331" cy="21.8325" r="2.93272" fill="#CACAD5"/>
<circle cx="21.8331" cy="40.7323" r="2.93272" fill="#CACAD5"/>
<circle cx="21.8331" cy="59.6321" r="2.93272" fill="#CACAD5"/>
<circle cx="21.8331" cy="78.5318" r="2.93272" fill="#CACAD5"/>
<circle cx="21.8331" cy="97.4316" r="2.93272" fill="#CACAD5"/>
<circle cx="21.8331" cy="116.331" r="2.93272" fill="#CACAD5"/>
<circle cx="21.8331" cy="135.231" r="2.93272" fill="#CACAD5"/>
<circle cx="21.8331" cy="154.131" r="2.93272" fill="#CACAD5"/>
<circle cx="21.8331" cy="173.031" r="2.93272" fill="#CACAD5"/>
<circle cx="97.4308" cy="2.93272" r="2.93272" fill="#CACAD5"/>
<circle cx="97.4308" cy="21.8325" r="2.93272" fill="#CACAD5"/>
<circle cx="97.4308" cy="40.7323" r="2.93272" fill="#CACAD5"/>
<circle cx="97.4308" cy="59.6321" r="2.93272" fill="#CACAD5"/>
<circle cx="97.4308" cy="78.5318" r="2.93272" fill="#CACAD5"/>
<circle cx="97.4308" cy="97.4316" r="2.93272" fill="#CACAD5"/>
<circle cx="97.4308" cy="116.331" r="2.93272" fill="#CACAD5"/>
<circle cx="97.4308" cy="135.231" r="2.93272" fill="#CACAD5"/>
<circle cx="97.4308" cy="154.131" r="2.93272" fill="#CACAD5"/>
<circle cx="97.4308" cy="173.031" r="2.93272" fill="#CACAD5"/>
<circle cx="173.03" cy="2.93272" r="2.93272" fill="#CACAD5"/>
<circle cx="173.03" cy="21.8325" r="2.93272" fill="#CACAD5"/>
<circle cx="173.03" cy="40.7323" r="2.93272" fill="#CACAD5"/>
<circle cx="173.03" cy="59.6321" r="2.93272" fill="#CACAD5"/>
<circle cx="173.03" cy="78.5318" r="2.93272" fill="#CACAD5"/>
<circle cx="173.03" cy="97.4316" r="2.93272" fill="#CACAD5"/>
<circle cx="173.03" cy="116.331" r="2.93272" fill="#CACAD5"/>
<circle cx="173.03" cy="135.231" r="2.93272" fill="#CACAD5"/>
<circle cx="173.03" cy="154.131" r="2.93272" fill="#CACAD5"/>
<circle cx="173.03" cy="173.031" r="2.93272" fill="#CACAD5"/>
<circle cx="59.6319" cy="2.93272" r="2.93272" fill="#CACAD5"/>
<circle cx="59.6319" cy="21.8325" r="2.93272" fill="#CACAD5"/>
<circle cx="59.6319" cy="40.7323" r="2.93272" fill="#CACAD5"/>
<circle cx="59.6319" cy="59.6321" r="2.93272" fill="#CACAD5"/>
<circle cx="59.6319" cy="78.5318" r="2.93272" fill="#CACAD5"/>
<circle cx="59.6319" cy="97.4316" r="2.93272" fill="#CACAD5"/>
<circle cx="59.6319" cy="116.331" r="2.93272" fill="#CACAD5"/>
<circle cx="59.6319" cy="135.231" r="2.93272" fill="#CACAD5"/>
<circle cx="59.6319" cy="154.131" r="2.93272" fill="#CACAD5"/>
<circle cx="59.6319" cy="173.031" r="2.93272" fill="#CACAD5"/>
<circle cx="135.232" cy="2.93272" r="2.93272" fill="#CACAD5"/>
<circle cx="135.232" cy="21.8325" r="2.93272" fill="#CACAD5"/>
<circle cx="135.232" cy="40.7323" r="2.93272" fill="#CACAD5"/>
<circle cx="135.232" cy="59.6321" r="2.93272" fill="#CACAD5"/>
<circle cx="135.232" cy="78.5318" r="2.93272" fill="#CACAD5"/>
<circle cx="135.232" cy="97.4316" r="2.93272" fill="#CACAD5"/>
<circle cx="135.232" cy="116.331" r="2.93272" fill="#CACAD5"/>
<circle cx="135.232" cy="135.231" r="2.93272" fill="#CACAD5"/>
<circle cx="135.232" cy="154.131" r="2.93272" fill="#CACAD5"/>
<circle cx="135.232" cy="173.031" r="2.93272" fill="#CACAD5"/>
<circle cx="210.831" cy="2.93272" r="2.93272" fill="#CACAD5"/>
<circle cx="210.831" cy="21.8325" r="2.93272" fill="#CACAD5"/>
<circle cx="210.831" cy="40.7323" r="2.93272" fill="#CACAD5"/>
<circle cx="210.831" cy="59.6321" r="2.93272" fill="#CACAD5"/>
<circle cx="210.831" cy="78.5318" r="2.93272" fill="#CACAD5"/>
<circle cx="210.831" cy="97.4316" r="2.93272" fill="#CACAD5"/>
<circle cx="210.831" cy="116.331" r="2.93272" fill="#CACAD5"/>
<circle cx="210.831" cy="135.231" r="2.93272" fill="#CACAD5"/>
<circle cx="210.831" cy="154.131" r="2.93272" fill="#CACAD5"/>
<circle cx="210.831" cy="173.031" r="2.93272" fill="#CACAD5"/>
</svg>
