<svg width="18" height="18" viewBox="0 0 18 18" fill="none" xmlns="http://www.w3.org/2000/svg">
<path d="M13.4829 5.74274C14.0602 5.74274 14.5281 5.27479 14.5281 4.69754C14.5281 4.1203 14.0602 3.65234 13.4829 3.65234C12.9057 3.65234 12.4377 4.1203 12.4377 4.69754C12.4377 5.27479 12.9057 5.74274 13.4829 5.74274Z" fill="#2E266F"/>
<path fill-rule="evenodd" clip-rule="evenodd" d="M4.61499 9.16994C4.61499 11.5717 6.56821 13.5249 8.96999 13.5249C11.3718 13.5249 13.325 11.5717 13.325 9.16994C13.325 6.76816 11.3718 4.81494 8.96999 4.81494C6.56821 4.81494 4.61499 6.76816 4.61499 9.16994ZM6.79251 9.17018C6.79251 7.96928 7.76912 6.99268 8.97001 6.99268C10.1709 6.99268 11.1475 7.96928 11.1475 9.17018C11.1475 10.3711 10.1709 11.3477 8.97001 11.3477C7.76912 11.3477 6.79251 10.3711 6.79251 9.17018Z" fill="#2E266F"/>
<path fill-rule="evenodd" clip-rule="evenodd" d="M4.61501 17.88H13.325C15.5635 17.88 17.68 15.7634 17.68 13.525V4.81496C17.68 2.57649 15.5635 0.459961 13.325 0.459961H4.61501C2.37654 0.459961 0.26001 2.57649 0.26001 4.81496V13.525C0.26001 15.7634 2.37654 17.88 4.61501 17.88ZM2.4375 4.8152C2.4375 3.79721 3.59702 2.6377 4.615 2.6377H13.325C14.343 2.6377 15.5025 3.79721 15.5025 4.8152V13.5252C15.5025 14.5432 14.343 15.7027 13.325 15.7027H4.615C3.57742 15.7027 2.4375 14.5628 2.4375 13.5252V4.8152Z" fill="#2E266F"/>
</svg>
