<svg width="280" height="65" viewBox="0 0 280 65" fill="none" xmlns="http://www.w3.org/2000/svg">
<path d="M0 0H247.5C265.449 0 280 14.5507 280 32.5C280 50.4493 265.449 65 247.5 65H0V0Z" fill="#FF7A00"/>
<path d="M109.38 43H105.96L95.67 27.43V43H92.25V22.12H95.67L105.96 37.66V22.12H109.38V43ZM115.611 24.28C114.991 24.28 114.471 24.07 114.051 23.65C113.631 23.23 113.421 22.71 113.421 22.09C113.421 21.47 113.631 20.95 114.051 20.53C114.471 20.11 114.991 19.9 115.611 19.9C116.211 19.9 116.721 20.11 117.141 20.53C117.561 20.95 117.771 21.47 117.771 22.09C117.771 22.71 117.561 23.23 117.141 23.65C116.721 24.07 116.211 24.28 115.611 24.28ZM117.291 26.47V43H113.871V26.47H117.291ZM128.441 26.2C129.721 26.2 130.851 26.46 131.831 26.98C132.831 27.48 133.611 28.11 134.171 28.87V26.47H137.621V43.27C137.621 44.79 137.301 46.14 136.661 47.32C136.021 48.52 135.091 49.46 133.871 50.14C132.671 50.82 131.231 51.16 129.551 51.16C127.311 51.16 125.451 50.63 123.971 49.57C122.491 48.53 121.651 47.11 121.451 45.31H124.841C125.101 46.17 125.651 46.86 126.491 47.38C127.351 47.92 128.371 48.19 129.551 48.19C130.931 48.19 132.041 47.77 132.881 46.93C133.741 46.09 134.171 44.87 134.171 43.27V40.51C133.591 41.29 132.801 41.95 131.801 42.49C130.821 43.01 129.701 43.27 128.441 43.27C127.001 43.27 125.681 42.91 124.481 42.19C123.301 41.45 122.361 40.43 121.661 39.13C120.981 37.81 120.641 36.32 120.641 34.66C120.641 33 120.981 31.53 121.661 30.25C122.361 28.97 123.301 27.98 124.481 27.28C125.681 26.56 127.001 26.2 128.441 26.2ZM134.171 34.72C134.171 33.58 133.931 32.59 133.451 31.75C132.991 30.91 132.381 30.27 131.621 29.83C130.861 29.39 130.041 29.17 129.161 29.17C128.281 29.17 127.461 29.39 126.701 29.83C125.941 30.25 125.321 30.88 124.841 31.72C124.381 32.54 124.151 33.52 124.151 34.66C124.151 35.8 124.381 36.8 124.841 37.66C125.321 38.52 125.941 39.18 126.701 39.64C127.481 40.08 128.301 40.3 129.161 40.3C130.041 40.3 130.861 40.08 131.621 39.64C132.381 39.2 132.991 38.56 133.451 37.72C133.931 36.86 134.171 35.86 134.171 34.72ZM157.263 34.33C157.263 34.95 157.223 35.51 157.143 36.01H144.513C144.613 37.33 145.103 38.39 145.983 39.19C146.863 39.99 147.943 40.39 149.223 40.39C151.063 40.39 152.363 39.62 153.123 38.08H156.813C156.313 39.6 155.403 40.85 154.083 41.83C152.783 42.79 151.163 43.27 149.223 43.27C147.643 43.27 146.223 42.92 144.963 42.22C143.723 41.5 142.743 40.5 142.023 39.22C141.323 37.92 140.973 36.42 140.973 34.72C140.973 33.02 141.313 31.53 141.993 30.25C142.693 28.95 143.663 27.95 144.903 27.25C146.163 26.55 147.603 26.2 149.223 26.2C150.783 26.2 152.173 26.54 153.393 27.22C154.613 27.9 155.563 28.86 156.243 30.1C156.923 31.32 157.263 32.73 157.263 34.33ZM153.693 33.25C153.673 31.99 153.223 30.98 152.343 30.22C151.463 29.46 150.373 29.08 149.073 29.08C147.893 29.08 146.883 29.46 146.043 30.22C145.203 30.96 144.703 31.97 144.543 33.25H153.693ZM164.049 28.87C164.549 28.03 165.209 27.38 166.029 26.92C166.869 26.44 167.859 26.2 168.999 26.2V29.74H168.129C166.789 29.74 165.769 30.08 165.069 30.76C164.389 31.44 164.049 32.62 164.049 34.3V43H160.629V26.47H164.049V28.87ZM173.883 24.28C173.263 24.28 172.743 24.07 172.323 23.65C171.903 23.23 171.693 22.71 171.693 22.09C171.693 21.47 171.903 20.95 172.323 20.53C172.743 20.11 173.263 19.9 173.883 19.9C174.483 19.9 174.993 20.11 175.413 20.53C175.833 20.95 176.043 21.47 176.043 22.09C176.043 22.71 175.833 23.23 175.413 23.65C174.993 24.07 174.483 24.28 173.883 24.28ZM175.563 26.47V43H172.143V26.47H175.563ZM178.913 34.66C178.913 33 179.253 31.53 179.933 30.25C180.633 28.97 181.573 27.98 182.753 27.28C183.953 26.56 185.273 26.2 186.713 26.2C188.013 26.2 189.143 26.46 190.103 26.98C191.083 27.48 191.863 28.11 192.443 28.87V26.47H195.893V43H192.443V40.54C191.863 41.32 191.073 41.97 190.073 42.49C189.073 43.01 187.933 43.27 186.653 43.27C185.233 43.27 183.933 42.91 182.753 42.19C181.573 41.45 180.633 40.43 179.933 39.13C179.253 37.81 178.913 36.32 178.913 34.66ZM192.443 34.72C192.443 33.58 192.203 32.59 191.723 31.75C191.263 30.91 190.653 30.27 189.893 29.83C189.133 29.39 188.313 29.17 187.433 29.17C186.553 29.17 185.733 29.39 184.973 29.83C184.213 30.25 183.593 30.88 183.113 31.72C182.653 32.54 182.423 33.52 182.423 34.66C182.423 35.8 182.653 36.8 183.113 37.66C183.593 38.52 184.213 39.18 184.973 39.64C185.753 40.08 186.573 40.3 187.433 40.3C188.313 40.3 189.133 40.08 189.893 39.64C190.653 39.2 191.263 38.56 191.723 37.72C192.203 36.86 192.443 35.86 192.443 34.72Z" fill="white"/>
<path fill-rule="evenodd" clip-rule="evenodd" d="M57.9535 21.4263C60.5025 19.9452 63.6356 19.9711 66.1607 21.4941C68.661 23.0481 70.1805 25.8216 70.1664 28.8051C70.1082 31.769 68.4788 34.555 66.442 36.7088C65.2664 37.9575 63.9513 39.0617 62.5236 39.9988C62.3765 40.0838 62.2155 40.1407 62.0483 40.1667C61.8875 40.1599 61.7308 40.1123 61.5925 40.0284C59.4128 38.6204 57.5005 36.8231 55.9476 34.723C54.6483 32.97 53.9101 30.852 53.8333 28.6569C53.8316 25.6677 55.4045 22.9074 57.9535 21.4263ZM59.4264 29.8939C59.8552 30.951 60.8673 31.6405 61.9901 31.6405C62.7257 31.6458 63.4328 31.3512 63.9539 30.8223C64.4749 30.2934 64.7666 29.5741 64.764 28.8248C64.768 27.6811 64.0946 26.6477 63.0584 26.2073C62.0222 25.7668 60.8275 26.0061 60.0321 26.8134C59.2368 27.6208 58.9977 28.8369 59.4264 29.8939Z" fill="white"/>
<ellipse opacity="0.4" cx="61.9998" cy="42.5" rx="5.83333" ry="1.16667" fill="white"/>
</svg>
