<svg width="82" height="13" viewBox="0 0 82 13" fill="none" xmlns="http://www.w3.org/2000/svg">
<rect y="6" width="22" height="1" fill="#CACAD5"/>
<rect x="60" y="6" width="22" height="1" fill="#CACAD5"/>
<path d="M36.4886 10.09C35.8019 10.09 35.2019 9.94333 34.6886 9.65C34.1819 9.35 33.7886 8.92667 33.5086 8.38C33.2353 7.82667 33.0986 7.17667 33.0986 6.43C33.0986 5.69 33.2353 5.04667 33.5086 4.5C33.7819 3.94667 34.1719 3.52333 34.6786 3.23C35.1919 2.93667 35.7953 2.79 36.4886 2.79C37.1819 2.79 37.7819 2.93667 38.2886 3.23C38.8019 3.52333 39.1919 3.94667 39.4586 4.5C39.7319 5.04667 39.8686 5.69 39.8686 6.43C39.8686 7.17667 39.7319 7.82667 39.4586 8.38C39.1853 8.92667 38.7953 9.35 38.2886 9.65C37.7819 9.94333 37.1819 10.09 36.4886 10.09ZM36.4886 9.06C37.1486 9.06 37.6619 8.83333 38.0286 8.38C38.3953 7.92667 38.5786 7.27667 38.5786 6.43C38.5786 5.59 38.3953 4.94667 38.0286 4.5C37.6619 4.04667 37.1486 3.82 36.4886 3.82C35.8286 3.82 35.3153 4.04333 34.9486 4.49C34.5819 4.93667 34.3986 5.58333 34.3986 6.43C34.3986 7.27667 34.5819 7.92667 34.9486 8.38C35.3153 8.83333 35.8286 9.06 36.4886 9.06ZM47.0499 10H45.6899L44.7799 7.63C44.6999 7.41 44.5766 7.25667 44.4099 7.17C44.2433 7.08333 44.0266 7.04 43.7599 7.04H42.4699V10H41.1899V2.88H44.2399C45.0466 2.88 45.6599 3.05667 46.0799 3.41C46.4999 3.76333 46.7099 4.27 46.7099 4.93C46.7099 5.40333 46.5833 5.80667 46.3299 6.14C46.0833 6.46667 45.7299 6.7 45.2699 6.84C45.6899 6.92667 45.9933 7.22 46.1799 7.72L47.0499 10ZM44.0599 6.04C44.5466 6.04 44.9066 5.95 45.1399 5.77C45.3733 5.59 45.4899 5.31667 45.4899 4.95C45.4899 4.59 45.3733 4.32333 45.1399 4.15C44.9133 3.97 44.5533 3.88 44.0599 3.88H42.4499V6.04H44.0599Z" fill="#CACAD5"/>
</svg>
