<svg width="153" height="42" viewBox="0 0 153 42" fill="none" xmlns="http://www.w3.org/2000/svg">
<path d="M45.364 29.126C44.536 29.126 43.792 28.982 43.132 28.694C42.484 28.394 41.974 27.986 41.602 27.47C41.23 26.942 41.038 26.336 41.026 25.652H42.772C42.832 26.24 43.072 26.738 43.492 27.146C43.924 27.542 44.548 27.74 45.364 27.74C46.144 27.74 46.756 27.548 47.2 27.164C47.656 26.768 47.884 26.264 47.884 25.652C47.884 25.172 47.752 24.782 47.488 24.482C47.224 24.182 46.894 23.954 46.498 23.798C46.102 23.642 45.568 23.474 44.896 23.294C44.068 23.078 43.402 22.862 42.898 22.646C42.406 22.43 41.98 22.094 41.62 21.638C41.272 21.17 41.098 20.546 41.098 19.766C41.098 19.082 41.272 18.476 41.62 17.948C41.968 17.42 42.454 17.012 43.078 16.724C43.714 16.436 44.44 16.292 45.256 16.292C46.432 16.292 47.392 16.586 48.136 17.174C48.892 17.762 49.318 18.542 49.414 19.514H47.614C47.554 19.034 47.302 18.614 46.858 18.254C46.414 17.882 45.826 17.696 45.094 17.696C44.41 17.696 43.852 17.876 43.42 18.236C42.988 18.584 42.772 19.076 42.772 19.712C42.772 20.168 42.898 20.54 43.15 20.828C43.414 21.116 43.732 21.338 44.104 21.494C44.488 21.638 45.022 21.806 45.706 21.998C46.534 22.226 47.2 22.454 47.704 22.682C48.208 22.898 48.64 23.24 49 23.708C49.36 24.164 49.54 24.788 49.54 25.58C49.54 26.192 49.378 26.768 49.054 27.308C48.73 27.848 48.25 28.286 47.614 28.622C46.978 28.958 46.228 29.126 45.364 29.126ZM51.3385 24.05C51.3385 23.03 51.5425 22.142 51.9505 21.386C52.3585 20.618 52.9225 20.024 53.6425 19.604C54.3745 19.184 55.2085 18.974 56.1445 18.974C57.3565 18.974 58.3525 19.268 59.1325 19.856C59.9245 20.444 60.4465 21.26 60.6985 22.304H58.9345C58.7665 21.704 58.4365 21.23 57.9445 20.882C57.4645 20.534 56.8645 20.36 56.1445 20.36C55.2085 20.36 54.4525 20.684 53.8765 21.332C53.3005 21.968 53.0125 22.874 53.0125 24.05C53.0125 25.238 53.3005 26.156 53.8765 26.804C54.4525 27.452 55.2085 27.776 56.1445 27.776C56.8645 27.776 57.4645 27.608 57.9445 27.272C58.4245 26.936 58.7545 26.456 58.9345 25.832H60.6985C60.4345 26.84 59.9065 27.65 59.1145 28.262C58.3225 28.862 57.3325 29.162 56.1445 29.162C55.2085 29.162 54.3745 28.952 53.6425 28.532C52.9225 28.112 52.3585 27.518 51.9505 26.75C51.5425 25.982 51.3385 25.082 51.3385 24.05ZM64.522 20.738C64.81 20.174 65.218 19.736 65.746 19.424C66.286 19.112 66.94 18.956 67.708 18.956V20.648H67.276C65.44 20.648 64.522 21.644 64.522 23.636V29H62.884V19.136H64.522V20.738ZM73.9009 29.162C72.9769 29.162 72.1369 28.952 71.3809 28.532C70.6369 28.112 70.0489 27.518 69.6169 26.75C69.1969 25.97 68.9869 25.07 68.9869 24.05C68.9869 23.042 69.2029 22.154 69.6349 21.386C70.0789 20.606 70.6789 20.012 71.4349 19.604C72.1909 19.184 73.0369 18.974 73.9729 18.974C74.9089 18.974 75.7549 19.184 76.5109 19.604C77.2669 20.012 77.8609 20.6 78.2929 21.368C78.7369 22.136 78.9589 23.03 78.9589 24.05C78.9589 25.07 78.7309 25.97 78.2749 26.75C77.8309 27.518 77.2249 28.112 76.4569 28.532C75.6889 28.952 74.8369 29.162 73.9009 29.162ZM73.9009 27.722C74.4889 27.722 75.0409 27.584 75.5569 27.308C76.0729 27.032 76.4869 26.618 76.7989 26.066C77.1229 25.514 77.2849 24.842 77.2849 24.05C77.2849 23.258 77.1289 22.586 76.8169 22.034C76.5049 21.482 76.0969 21.074 75.5929 20.81C75.0889 20.534 74.5429 20.396 73.9549 20.396C73.3549 20.396 72.8029 20.534 72.2989 20.81C71.8069 21.074 71.4109 21.482 71.1109 22.034C70.8109 22.586 70.6609 23.258 70.6609 24.05C70.6609 24.854 70.8049 25.532 71.0929 26.084C71.3929 26.636 71.7889 27.05 72.2809 27.326C72.7729 27.59 73.3129 27.722 73.9009 27.722ZM82.7506 15.68V29H81.1126V15.68H82.7506ZM87.1803 15.68V29H85.5423V15.68H87.1803ZM98.6768 16.454C100.045 16.454 101.227 16.712 102.223 17.228C103.231 17.732 103.999 18.458 104.527 19.406C105.067 20.354 105.337 21.47 105.337 22.754C105.337 24.038 105.067 25.154 104.527 26.102C103.999 27.038 103.231 27.758 102.223 28.262C101.227 28.754 100.045 29 98.6768 29H94.7708V16.454H98.6768ZM98.6768 27.65C100.297 27.65 101.533 27.224 102.385 26.372C103.237 25.508 103.663 24.302 103.663 22.754C103.663 21.194 103.231 19.976 102.367 19.1C101.515 18.224 100.285 17.786 98.6768 17.786H96.4088V27.65H98.6768ZM111.799 29.162C110.875 29.162 110.035 28.952 109.279 28.532C108.535 28.112 107.947 27.518 107.515 26.75C107.095 25.97 106.885 25.07 106.885 24.05C106.885 23.042 107.101 22.154 107.533 21.386C107.977 20.606 108.577 20.012 109.333 19.604C110.089 19.184 110.935 18.974 111.871 18.974C112.807 18.974 113.653 19.184 114.409 19.604C115.165 20.012 115.759 20.6 116.191 21.368C116.635 22.136 116.857 23.03 116.857 24.05C116.857 25.07 116.629 25.97 116.173 26.75C115.729 27.518 115.123 28.112 114.355 28.532C113.587 28.952 112.735 29.162 111.799 29.162ZM111.799 27.722C112.387 27.722 112.939 27.584 113.455 27.308C113.971 27.032 114.385 26.618 114.697 26.066C115.021 25.514 115.183 24.842 115.183 24.05C115.183 23.258 115.027 22.586 114.715 22.034C114.403 21.482 113.995 21.074 113.491 20.81C112.987 20.534 112.441 20.396 111.853 20.396C111.253 20.396 110.701 20.534 110.197 20.81C109.705 21.074 109.309 21.482 109.009 22.034C108.709 22.586 108.559 23.258 108.559 24.05C108.559 24.854 108.703 25.532 108.991 26.084C109.291 26.636 109.687 27.05 110.179 27.326C110.671 27.59 111.211 27.722 111.799 27.722ZM132.151 19.136L129.073 29H127.381L125.005 21.17L122.629 29H120.937L117.841 19.136H119.515L121.783 27.416L124.231 19.136H125.905L128.299 27.434L130.531 19.136H132.151ZM138.583 18.956C139.783 18.956 140.755 19.322 141.499 20.054C142.243 20.774 142.615 21.818 142.615 23.186V29H140.995V23.42C140.995 22.436 140.749 21.686 140.257 21.17C139.765 20.642 139.093 20.378 138.241 20.378C137.377 20.378 136.687 20.648 136.171 21.188C135.667 21.728 135.415 22.514 135.415 23.546V29H133.777V19.136H135.415V20.54C135.739 20.036 136.177 19.646 136.729 19.37C137.293 19.094 137.911 18.956 138.583 18.956Z" fill="#CBCBCB"/>
<rect x="1" y="1" width="23" height="40" rx="11.5" stroke="#CBCBCB" stroke-width="2"/>
<rect x="11.7346" y="10.0801" width="2.55102" height="8.4" rx="1.27551" fill="#CBCBCB"/>
</svg>
