<svg width="37" height="37" viewBox="0 0 37 37" fill="none" xmlns="http://www.w3.org/2000/svg">
<path d="M35.9062 18.6467C35.9162 17.7294 35.4171 16.8866 34.6111 16.4421L15.8282 6.06245C14.9859 5.58525 13.996 5.64059 13.2072 6.17858C12.4029 6.72654 11.9936 8.03659 12.2218 8.98374L13.996 16.335C14.1772 17.0898 14.8519 17.6224 15.6263 17.6215L26.0615 17.6215C26.5967 17.6115 27.0315 18.047 27.0215 18.5832C27.0224 19.1084 26.5958 19.5357 26.0615 19.5448L15.6172 19.5357C14.8419 19.5357 14.1681 20.0656 13.9852 20.8204L12.1955 28.1907C11.9791 29.0608 12.2318 29.9326 12.8476 30.5495C12.9201 30.6221 13.0016 30.7038 13.084 30.7664C13.8801 31.3842 14.9225 31.4649 15.8101 30.9932L34.593 20.8331C35.399 20.4067 35.8971 19.563 35.9062 18.6467Z" fill="white"/>
<path opacity="0.4" fill-rule="evenodd" clip-rule="evenodd" d="M6.33915 14.8477C6.16526 14.6735 6.05748 14.4331 6.05839 14.1673C6.05839 13.6357 6.48768 13.2056 7.01841 13.2056L9.49181 13.2047C10.0216 13.2056 10.4518 13.6366 10.4527 14.1673C10.4518 14.698 10.0216 15.129 9.49181 15.1299L7.01841 15.129C6.75304 15.1299 6.51304 15.0219 6.33915 14.8477ZM8.66565 19.3418C8.49176 19.1676 8.38399 18.9272 8.38489 18.6614C8.38489 18.1297 8.81418 17.6997 9.34491 17.6997L11.8183 17.6988C12.3481 17.6997 12.7783 18.1306 12.7792 18.6614C12.7783 19.1921 12.3481 19.623 11.8183 19.6239L9.34491 19.623C9.07955 19.6239 8.83954 19.516 8.66565 19.3418ZM5.66392 22.8089C5.66301 23.0748 5.77079 23.3152 5.94468 23.4894C6.11857 23.6636 6.35857 23.7715 6.62394 23.7706L9.09734 23.7715C9.62717 23.7706 10.0574 23.3397 10.0583 22.8089C10.0574 22.2782 9.62717 21.8473 9.09734 21.8464L6.62394 21.8473C6.09321 21.8473 5.66392 22.2773 5.66392 22.8089Z" fill="white"/>
</svg>
