<svg width="20" height="17" viewBox="0 0 20 17" fill="none" xmlns="http://www.w3.org/2000/svg">
<path d="M19.8631 2.26808C19.1452 2.62971 18.4274 2.75025 17.5899 2.87079C18.4274 2.38862 19.0256 1.66538 19.2649 0.701044C18.547 1.18321 17.7095 1.42429 16.7524 1.66538C16.0345 0.942127 14.9577 0.459961 13.8809 0.459961C11.847 0.459961 10.0524 2.26808 10.0524 4.43783C10.0524 4.79945 10.0524 5.04054 10.172 5.28162C6.94164 5.16108 3.95057 3.59404 2.03629 1.18321C1.67736 1.78592 1.55771 2.38862 1.55771 3.23242C1.55771 4.55837 2.27557 5.76379 3.35236 6.48704C2.75414 6.48704 2.15593 6.24595 1.55771 6.00487C1.55771 7.93353 2.87379 9.50057 4.66843 9.8622C4.3095 9.98274 3.95057 9.98274 3.59164 9.98274C3.35236 9.98274 3.11307 9.98274 2.87379 9.8622C3.35236 11.4292 4.78807 12.6347 6.58272 12.6347C5.26664 13.7195 3.59164 14.3222 1.67736 14.3222C1.31843 14.3222 1.07914 14.3222 0.720215 14.3222C2.51486 15.4071 4.54879 16.1304 6.70236 16.1304C13.8809 16.1304 17.8291 10.1033 17.8291 4.92C17.8291 4.79945 17.8291 4.55837 17.8291 4.43783C18.6666 3.83512 19.3845 3.11187 19.8631 2.26808Z" fill="#2E266F"/>
</svg>
