<svg width="37" height="30" viewBox="0 0 37 30" fill="none" xmlns="http://www.w3.org/2000/svg">
<path d="M36.9275 3.57256C35.5632 4.17081 34.1064 4.57836 32.5725 4.76444C34.1357 3.82478 35.3382 2.34377 35.907 0.576716C34.4409 1.43026 32.8161 2.05157 31.0864 2.3976C29.7051 0.922746 27.7365 0 25.5505 0C21.362 0 17.9658 3.38801 17.9658 7.5619C17.9658 8.16168 18.0352 8.7384 18.1616 9.29051C11.8565 8.99369 6.26816 5.97324 2.52823 1.40719C1.86996 2.51756 1.50152 3.80786 1.50152 5.21351C1.50152 7.84334 2.84272 10.1548 4.87455 11.5128C3.63047 11.4728 2.4604 11.1314 1.43986 10.5654V10.6593C1.43986 14.3272 4.04979 17.3861 7.52302 18.0827C6.88634 18.2534 6.2142 18.3457 5.5251 18.3457C5.04104 18.3457 4.57702 18.2996 4.113 18.2135C5.08575 21.217 7.88221 23.407 11.2105 23.4685C8.62064 25.497 5.33857 26.7058 1.80367 26.7058C1.20245 26.7058 0.602767 26.6704 0 26.6028C3.37457 28.7466 7.35036 30 11.6499 30C25.6076 30 33.2308 18.4718 33.2308 8.4908C33.2308 8.16938 33.2308 7.84488 33.2077 7.52191C34.6891 6.4623 35.9825 5.12278 37 3.60332L36.9275 3.57256Z" fill="#10C6FF"/>
</svg>
