<svg width="27" height="27" viewBox="0 0 27 27" fill="none" xmlns="http://www.w3.org/2000/svg">
<path d="M4.817 19.4167L4.91581 19.1781L4.77846 18.9594C3.78285 17.3742 3.19995 15.5059 3.19995 13.4984C3.19995 7.81028 7.81171 3.19971 13.5 3.19971C19.1874 3.19971 23.7999 7.81031 23.7999 13.4984C23.7999 19.1866 19.1872 23.8002 13.5 23.8002C11.4927 23.8002 9.62621 23.2159 8.04096 22.2209L7.82227 22.0836L7.58373 22.1824L3.75401 23.7694C3.6584 23.8089 3.55006 23.8119 3.4474 23.7699C3.24231 23.684 3.14664 23.45 3.23048 23.2471C3.2305 23.2471 3.23052 23.247 3.23054 23.247L4.817 19.4167ZM8.46526 21.544L8.46536 21.5441C9.98193 22.4949 11.7232 23.0002 13.5 23.0002C18.7386 23.0002 22.9999 18.7367 22.9999 13.4984C22.9999 8.26009 18.7384 3.99953 13.5 3.99953C8.26154 3.99953 4.00004 8.26037 4.00004 13.4984C4.00004 15.2752 4.50296 17.0165 5.45642 18.5334L5.81291 19.102L4.80083 21.5461L4.339 22.6614L5.45418 22.1993L7.89658 21.1873L8.46526 21.544Z" fill="#4EAA97" stroke="#2E266F"/>
<path d="M16.9651 16.9623L16.9642 16.9632C16.4585 17.47 15.6347 17.471 15.1253 16.9627L15.1251 16.9626L15.1251 16.9625L15.1244 16.9619L15.1217 16.9591L15.1108 16.9482L15.0682 16.9056L14.9067 16.7441L14.3301 16.1674L12.5806 14.4175L10.8893 12.7257H10.8899L10.0364 11.8722C9.52856 11.3644 9.52856 10.5418 10.0364 10.034L10.0364 10.034L10.8556 9.21462L12.2341 11.5118L11.5557 12.1902L11.2022 12.5437L11.5556 12.8973L14.1001 15.4428L14.4537 15.7965L14.8073 15.4429L15.4857 14.7645L17.7852 16.1443L16.9651 16.9623ZM10.0391 11.8749C10.0391 11.8749 10.0391 11.8749 10.0391 11.875L10.0391 11.8749ZM9.45527 11.9481C8.99039 11.249 9.06624 10.297 9.68283 9.68044L10.5904 8.77268L9.45527 11.9481Z" fill="#2E266F" stroke="#2E266F"/>
</svg>
